<svg xmlns="http://www.w3.org/2000/svg" width="21.1" height="25.516" viewBox="0 0 21.1 25.516"><defs><style>.a{fill:#fff;}</style></defs><g transform="translate(-44.312)"><g transform="translate(45.714 9.588)"><path class="a" d="M88.079,198.078a9.109,9.109,0,0,0-5.74-2.658V193.89h1.448v-1.5h-4.4v1.5h1.448v1.531a9.179,9.179,0,0,0-8.4,8.4h18.3A9.108,9.108,0,0,0,88.079,198.078Z" transform="translate(-72.441 -192.39)"/></g><g transform="translate(44.312 22.516)"><path class="a" d="M63.08,453.3v-1.5H46.658v1.5H44.312v1.5h21.1v-1.5Z" transform="translate(-44.312 -451.804)"/></g><g transform="translate(54.112)"><rect class="a" width="1.5" height="3.148"/></g><g transform="translate(61.931 9.877)"><rect class="a" width="3.207" height="1.5"/></g><g transform="translate(44.585 9.877)"><rect class="a" width="3.188" height="1.5"/></g><g transform="translate(59.53 2.618)"><path class="a" d="M351.955,52.523l-.011.011L349.675,54.8l1.061,1.061L353,53.595l.011-.011Z" transform="translate(-349.675 -52.523)"/></g><g transform="translate(46.844 2.618)"><path class="a" d="M96.189,52.537l-.51.51-.56.542.54-.521-.53.53L97.4,55.867l1.061-1.061Z" transform="translate(-95.119 -52.537)"/></g></g></svg>