<svg xmlns="http://www.w3.org/2000/svg" width="24.841" height="24.844" viewBox="0 0 24.841 24.844"><defs><style>.a{fill:#fff;}</style></defs><g transform="translate(-1473.016 -276.955)"><g transform="translate(1473.016 276.955)"><path class="a" d="M1489.658,680.151H1474.18a.225.225,0,0,0-.055-.042,1.45,1.45,0,0,1-1.108-1.534q0-1.855,0-3.71V674.6h17.815a.7.7,0,0,1,.021.111c0,1.326.007,2.651,0,3.977a1.383,1.383,0,0,1-.611,1.18A4.07,4.07,0,0,1,1489.658,680.151Z" transform="translate(-1473.017 -655.308)"/><path class="a" d="M1491.876,277.016h-15.992a2.766,2.766,0,0,0-2.869,2.871q0,7.338,0,14.676v.29h6.4q5.579,0,11.159,0c.212,0,.295-.041.29-.276-.015-.76,0-1.52,0-2.28q0-6.259,0-12.517a4.16,4.16,0,0,1,.913-2.624C1491.8,277.124,1491.823,277.087,1491.876,277.016Z" transform="translate(-1473.016 -277.013)"/><path class="a" d="M1875.773,291.27l-4.921.009h-.634c-.006-.1-.014-.17-.014-.241q0-5.6,0-11.2a2.787,2.787,0,0,1,5.515-.656,1.277,1.277,0,0,0,.051.154Z" transform="translate(-1850.932 -276.955)"/><path class="a" d="M1876.116,606.415c-.045.1-.086.2-.134.3a1.38,1.38,0,0,1-1.258.849c-1.358.024-2.716.008-4.074.007a.428.428,0,0,1-.085-.022V602h5.552Z" transform="translate(-1851.275 -586.229)"/><path class="a" d="M1491.876,277.016c-.053.072-.079.109-.107.144a4.16,4.16,0,0,0-.913,2.624q0,6.258,0,12.517c0,.76-.011,1.52,0,2.28,0,.235-.078.277-.29.276q-5.579-.009-11.159,0h-6.4v-.29q0-7.338,0-14.676a2.766,2.766,0,0,1,2.869-2.871h15.992Z" transform="translate(-1473.016 -277.013)"/></g></g></svg>