<svg xmlns="http://www.w3.org/2000/svg" width="28.606" height="28.606" viewBox="0 0 28.606 28.606"><defs><style>.a{fill:#1f3c53;}</style></defs><path class="a" d="M14.3,0a14.3,14.3,0,1,0,14.3,14.3A14.345,14.345,0,0,0,14.3,0Zm5.006,8.582a2.2,2.2,0,0,1,2.145,2.145,2.145,2.145,0,1,1-4.291,0A2.2,2.2,0,0,1,19.309,8.582ZM9.3,8.582a2.2,2.2,0,0,1,2.145,2.145A2.2,2.2,0,0,1,9.3,12.873a2.2,2.2,0,0,1-2.145-2.145A2.2,2.2,0,0,1,9.3,8.582Zm5.006,14.3a8.52,8.52,0,0,1-8.01-5.721h16.02A8.52,8.52,0,0,1,14.3,22.885Z"/></svg>