<svg xmlns="http://www.w3.org/2000/svg" width="30.542" height="22.012" viewBox="0 0 30.542 22.012"><defs><style>.a{fill:#fff;}</style></defs><g transform="translate(0 -42.236)"><g transform="translate(0 42.236)"><path class="a" d="M100.647,96.568a7.1,7.1,0,1,0-7.1-7.095A7.1,7.1,0,0,0,100.647,96.568Z" transform="translate(-84.105 -78.324)"/><path class="a" d="M83.7,81.528a9,9,0,1,0-9-9A9,9,0,0,0,83.7,81.528Zm0-16.62a7.62,7.62,0,1,1-7.62,7.621A7.63,7.63,0,0,1,83.7,64.908Z" transform="translate(-67.154 -61.379)"/><path class="a" d="M262.609,63.222l-.525-20.2a.788.788,0,0,0-.788-.788.768.768,0,0,0-.325.073V42.3l-.05.033a.807.807,0,0,0-.2.155,7.7,7.7,0,0,0-2.568,5.008c-.233,3.976,1.7,5.586,2.356,7.06l-.525,8.664c0,.435.878.788,1.313.788S262.609,63.657,262.609,63.222Z" transform="translate(-232.068 -42.236)"/><path class="a" d="M1.375,53.474l1.359.679a2.308,2.308,0,0,0,.5.176L2.713,66.144c0,.365.878.66,1.313.66s1.313-.3,1.313-.66L4.813,54.269a2.34,2.34,0,0,0,.519-.225l1.007-.613a2.866,2.866,0,0,0,1.274-2.269V45.868a.788.788,0,1,0-1.575,0v4.769H5.6V45.868a.788.788,0,0,0-1.575,0v4.769H3.587V45.868a.788.788,0,1,0-1.575,0v4.769H1.575v-4.6a.788.788,0,1,0-1.575,0v5.212A2.647,2.647,0,0,0,1.375,53.474Z" transform="translate(0 -44.793)"/></g></g></svg>