<svg xmlns="http://www.w3.org/2000/svg" width="27.903" height="29.732" viewBox="0 0 27.903 29.732"><defs><style>.a{fill:#fff;}</style></defs><g transform="translate(-22.526 0)"><g transform="translate(22.526 0)"><path class="a" d="M498.3.55l-6.955,13.485.119.036a5.179,5.179,0,0,1,.826.345,4.379,4.379,0,0,1,.845.576L500.106,1.48a1.015,1.015,0,1,0-1.8-.93Z" transform="translate(-472.316 0)"/><path class="a" d="M25.532,378.424a15.752,15.752,0,0,0,4.035,2.583,21,21,0,0,0,5.089,1.582h.008a.682.682,0,0,0,.093.006h.023a8.494,8.494,0,0,0,6.469-2.764c1.973-2.293,2.686-5.74,2.547-8.7a3.624,3.624,0,0,0-.935-2.332c-.044-.046-.09-.091-.137-.134a3.347,3.347,0,0,0-.689-.479,4.166,4.166,0,0,0-.672-.281,2.217,2.217,0,0,0-.288-.071,2.249,2.249,0,0,0-.4-.036,4.287,4.287,0,0,0-2.635,1.244,22.522,22.522,0,0,1-2.329,1.911,10.292,10.292,0,0,1-2.972,1.212,25.507,25.507,0,0,1-4.144.789,33.776,33.776,0,0,1-3.758.221q-.748,0-1.492-.04l-.086,0-.048,0a.689.689,0,0,0-.652.914A10.488,10.488,0,0,0,25.532,378.424Zm-.966-3.88h.217a35.992,35.992,0,0,0,4.017-.226,20.508,20.508,0,0,0,8.167-2.434.373.373,0,0,1,.191-.053.378.378,0,0,1,.182.047A35.713,35.713,0,0,0,41.752,374a.377.377,0,0,1,.247.4,8.425,8.425,0,0,1-1.8,4.542,7.128,7.128,0,0,1-5.342,2.275h-.022a.525.525,0,0,1-.09-.008c-.235-.041-.814-.153-1.59-.367.221-.1.451-.215.682-.346.207-.117.416-.245.623-.378.64-.413,1.26-.882,1.742-1.268a.122.122,0,0,0-.125-.208,16.7,16.7,0,0,1-3.607.933c-.379.061-.743.112-1.081.155-.395.05-.751.088-1.049.116l-.233-.1a16.356,16.356,0,0,1-1.875-1.007,7.431,7.431,0,0,0,.787-.12c.245-.05.492-.11.735-.176a19.3,19.3,0,0,0,1.865-.622.082.082,0,0,0-.038-.158c-.849.082-2.026.089-3.031.074-.329,0-.64-.012-.915-.02-.361-.01-.66-.021-.857-.03q-.173-.145-.338-.293-.213-.193-.411-.392c.2-.021.416-.053.631-.094s.4-.085.608-.136a18.637,18.637,0,0,0,2.1-.683.082.082,0,0,0-.038-.158c-.8.077-1.883.088-2.845.077-.237,0-.467-.007-.683-.012-.24-.005-.463-.012-.661-.018a8.892,8.892,0,0,1-.74-1.156A.185.185,0,0,1,24.566,374.544Z" transform="translate(-22.526 -352.864)"/><circle class="a" cx="1.629" cy="1.629" r="1.629" transform="translate(22.675 23.528)"/><circle class="a" cx="0.823" cy="0.823" r="0.823" transform="translate(19.967 28.064)"/><circle class="a" cx="0.823" cy="0.823" r="0.823" transform="translate(24.43 27.874)"/></g></g></svg>